<?xml version="1.0" encoding="utf-8"?>
<!-- Generator: Adobe Illustrator 25.4.1, SVG Export Plug-In . SVG Version: 6.00 Build 0)  -->
<svg version="1.1" id="Layer_1" xmlns="http://www.w3.org/2000/svg" xmlns:xlink="http://www.w3.org/1999/xlink" x="0px" y="0px"
	 viewBox="0 0 30 30" style="enable-background:new 0 0 30 30;" xml:space="preserve">
<style type="text/css">
	.st0{fill:none;}
	.st1{fill:#343e55;}
</style>
<rect id="Rectangle_193" class="st0" width="30" height="30"/>
<g id="Regular-M">
	<path id="Path_1" class="st1" d="M17.6,23.1l-7.7-7.5c-0.2-0.2-0.3-0.4-0.3-0.6c0-0.2,0.1-0.5,0.3-0.6l7.7-7.5
		c0.3-0.3,0.9-0.3,1.3,0c0.2,0.2,0.3,0.4,0.3,0.6S19.1,8,18.9,8.1L11.8,15l7.1,6.9c0.1,0.1,0.2,0.4,0.2,0.6c0,0.5-0.3,0.9-0.8,0.9
		l0,0l0,0C18,23.4,17.8,23.3,17.6,23.1z"/>
</g>
</svg>