<svg version="1.1" id="Layer_1" xmlns="http://www.w3.org/2000/svg" xmlns:xlink="http://www.w3.org/1999/xlink" x="0px" y="0px"
	 viewBox="0 0 30 30" style="enable-background:new 0 0 30 30;" xml:space="preserve">
<style type="text/css">
	.st0{fill:none;}
	.st1{fill:#343e55;}
</style>
<rect id="Rectangle_193" x="0" y="0" class="st0" width="30" height="30"/>
<g id="Regular-M">
	<path id="Path_1" class="st1" d="M12.4,6.9l7.7,7.5c0.2,0.2,0.3,0.4,0.3,0.6c0,0.2-0.1,0.5-0.3,0.6l-7.7,7.5
		c-0.3,0.3-0.9,0.3-1.3,0c-0.2-0.2-0.3-0.4-0.3-0.6c0-0.2,0.1-0.5,0.3-0.6l7.1-6.9l-7.1-6.9C11,8,10.9,7.7,10.9,7.5
		c0-0.5,0.3-0.9,0.8-0.9c0,0,0,0,0,0l0,0C12,6.6,12.2,6.7,12.4,6.9z"/>
</g>
</svg>